<?xml version="1.0" encoding="UTF-8"?>
<svg id="Layer_1" xmlns="http://www.w3.org/2000/svg" version="1.1" viewBox="0 0 24 24">
  <!-- Generator: Adobe Illustrator 30.4.0, SVG Export Plug-In . SVG Version: 2.1.4 Build 226)  -->
  <defs>
    <style>
      .st0 {
        fill: #fff;
      }
    </style>
  </defs>
  <path class="st0" d="M15.7,10.13c-1.7-1.7-2.89-3.93-3.29-6.42-.03-.17-.26-.17-.29,0-.4,2.49-1.58,4.72-3.29,6.42-1.7,1.71-3.93,2.89-6.42,3.29-.17.03-.17.26,0,.29,4.97.79,8.91,4.72,9.7,9.7.03.17.26.17.29,0,.4-2.49,1.58-4.72,3.28-6.42,1.7-1.71,3.92-2.89,6.4-3.28.17-.03.17-.26,0-.29-2.48-.4-4.7-1.57-6.4-3.28ZM15.29,16.59c-1.49,1.49-2.52,3.42-2.88,5.59-.03.17-.26.17-.28,0-.73-4.34-4.16-7.76-8.49-8.49-.17-.03-.17-.25,0-.28,2.17-.36,4.11-1.41,5.6-2.9,1.5-1.49,2.53-3.42,2.9-5.59.03-.17.26-.17.28,0,.36,2.17,1.39,4.1,2.88,5.59s3.43,2.53,5.6,2.9c.17.03.17.25,0,.28-2.17.36-4.11,1.41-5.6,2.9Z"/>
  <path class="st0" d="M6.38,3.4c-.76-.76-1.29-1.76-1.47-2.88-.01-.08-.12-.08-.13,0-.18,1.12-.71,2.11-1.47,2.88-.76.77-1.76,1.3-2.88,1.47-.08.01-.08.12,0,.13,2.23.36,3.99,2.12,4.35,4.35.01.08.12.08.13,0,.18-1.12.71-2.11,1.47-2.88.76-.77,1.76-1.3,2.87-1.47.08-.01.08-.12,0-.13-1.11-.18-2.11-.7-2.87-1.47ZM6.2,6.3c-.67.67-1.13,1.53-1.29,2.51-.01.08-.11.08-.13,0-.33-1.94-1.86-3.48-3.81-3.8-.08-.01-.08-.11,0-.13.97-.16,1.84-.63,2.51-1.3.67-.67,1.14-1.53,1.3-2.5.01-.08.11-.08.13,0,.16.97.63,1.84,1.29,2.5s1.54,1.14,2.51,1.3c.08.01.08.11,0,.13-.97.16-1.84.63-2.51,1.3Z"/>
  <path class="st0" d="M22.01,16.59c-.42-.42-.71-.97-.81-1.59,0-.04-.07-.04-.07,0-.1.62-.39,1.17-.81,1.59-.42.42-.97.71-1.59.81-.04,0-.04.07,0,.07,1.23.2,2.2,1.17,2.4,2.4,0,.04.07.04.07,0,.1-.62.39-1.17.81-1.59.42-.42.97-.71,1.58-.81.04,0,.04-.07,0-.07-.61-.1-1.16-.39-1.58-.81ZM21.91,18.19c-.37.37-.62.85-.71,1.38,0,.04-.06.04-.07,0-.18-1.07-1.03-1.92-2.1-2.1-.04,0-.04-.06,0-.07.54-.09,1.02-.35,1.38-.72.37-.37.63-.84.72-1.38,0-.04.06-.04.07,0,.09.54.34,1.01.71,1.38s.85.63,1.38.72c.04,0,.04.06,0,.07-.54.09-1.01.35-1.38.72Z"/>
</svg>